<svg width="64" height="64" viewBox="0 0 64 64" fill="none" xmlns="http://www.w3.org/2000/svg">
<path d="M37.6779 30.7513C37.4971 32.1269 37.1693 33.4794 36.7001 34.7859C36.1327 36.3398 35.3547 37.8094 34.3877 39.154L34.2854 39.2979C33.8476 39.8949 33.3781 40.4672 32.9474 41.0536C32.5099 41.6712 32.1339 42.3298 31.8248 43.02C31.278 44.1907 30.9137 45.4375 30.7445 46.7174V46.7982C30.4316 49.2321 30.8376 51.7039 31.913 53.9122C31.913 53.9122 31.913 53.9367 31.9307 53.9473L31.9554 54C31.9554 53.9789 31.9236 53.9578 31.9095 53.9332L31.8813 53.9016C30.3679 51.8934 29.4882 49.4834 29.3536 46.9773C29.3135 46.1953 29.3454 45.4114 29.4489 44.6352C29.4701 44.4912 29.4913 44.3473 29.516 44.2033C29.7844 42.5591 30.3848 40.986 31.2811 39.5788C31.7895 38.8063 32.379 38.09 32.9121 37.3351C33.7142 36.1847 34.3855 34.9493 34.9138 33.6517C35.2281 32.8897 35.4934 32.1086 35.7081 31.3131C35.9268 30.4934 36.093 29.6607 36.2058 28.8201C36.2729 28.3144 36.3188 27.8123 36.347 27.3102C36.5672 23.4147 35.6067 19.5432 33.5899 16.1968C33.4134 15.9018 33.2369 15.6104 33.0357 15.3224C33.1063 15.4032 33.1769 15.4805 33.2439 15.5612L33.4734 15.8386L33.5087 15.8808L33.6499 16.0669L34.063 16.6181L34.2148 16.8253C34.2148 16.8499 34.2465 16.871 34.2607 16.892C36.3131 19.7897 37.5335 23.1885 37.7909 26.7238C37.8934 28.0666 37.8555 29.4163 37.6779 30.7513Z" fill="#0D0D0E"/>
<path d="M32.0085 53.9788C32.0085 53.8735 32.0085 53.7717 32.0332 53.7295C32.0721 53.5399 32.1109 53.3503 32.1533 53.1642C32.2345 52.8131 32.3298 52.4409 32.4321 52.0862C33.066 49.9471 34.093 47.9434 35.4611 46.1766C36.6473 44.6421 38.13 43.3675 39.4503 41.963C41.6356 39.6849 43.0522 36.7857 43.5031 33.6692C43.5031 33.5673 43.5313 33.4655 43.5419 33.3637C43.7062 31.9354 43.6706 30.4914 43.436 29.0728C52.4735 43.4974 38.6384 43.4518 32.0085 53.9788Z" fill="#0D0D0E"/>
<path d="M36.1918 28.82C35.894 31.0735 35.2048 33.2585 34.1549 35.2773C33.8901 35.7795 33.6077 36.2711 33.297 36.7486C32.9864 37.2261 32.6545 37.6861 32.3156 38.1531C31.9767 38.6201 31.6307 39.0591 31.313 39.5331C30.9986 40.0057 30.7224 40.5024 30.4869 41.0184C30.0204 42.0538 29.6883 43.1441 29.4985 44.2629C29.4042 44.8226 29.3488 45.3881 29.3325 45.9554C29.3166 46.5215 29.3378 47.088 29.3961 47.6513C29.5142 48.7806 29.7862 49.8886 30.2045 50.945C30.6214 51.9995 31.1782 52.9939 31.8602 53.9015C31.4835 53.6199 31.124 53.3162 30.7835 52.9921C30.4305 52.6761 30.1163 52.3214 29.7915 51.9703C29.4789 51.6101 29.1854 51.2339 28.9124 50.8432C28.63 50.4569 28.3829 50.0461 28.1358 49.6317C27.8887 49.2174 27.6698 48.789 27.4862 48.3431C27.3944 48.1219 27.2815 47.9077 27.2038 47.6794L26.9531 46.9982C26.8755 46.77 26.8119 46.5347 26.7413 46.296C26.706 46.1801 26.6707 46.0642 26.6389 45.9448L26.5578 45.5937C26.5083 45.3584 26.4448 45.1232 26.406 44.8914L26.293 44.1891C26.2506 43.9504 26.24 43.7081 26.2118 43.4658C26.1835 43.2235 26.1765 42.9532 26.1765 42.7003L26.1553 41.9735L26.1765 41.2431C26.1765 41.1237 26.1765 41.0008 26.1941 40.892L26.233 40.5409C26.2577 40.2986 26.2753 40.0598 26.3106 39.814C26.3459 39.5682 26.3812 39.3365 26.4271 39.1117C26.473 38.887 26.5189 38.6342 26.5719 38.4095C26.9982 36.5082 27.7634 34.6982 28.8312 33.0652L28.7959 33.1284L28.8489 33.0371L29.5091 32.068C29.7244 31.7555 29.9327 31.4394 30.1374 31.1199C30.3422 30.8004 30.5434 30.4808 30.7411 30.1578L30.8823 29.9225L31.0271 29.6732L31.3166 29.1711C31.5142 28.82 31.6696 28.511 31.8532 28.1774C32.0367 27.8438 32.1779 27.5032 32.3509 27.1521C32.5239 26.8009 32.651 26.4498 32.8063 26.1197C32.9617 25.7897 33.0887 25.4175 33.2052 25.0663L33.3888 24.5326C33.4488 24.3535 33.4947 24.1815 33.5477 23.9954C33.6606 23.6442 33.7348 23.2685 33.8266 22.9069C33.9184 22.5452 33.9784 22.173 34.0243 21.8008L34.0631 21.5234L34.0913 21.2425C34.0913 21.0599 34.1302 20.8703 34.1337 20.6842C34.1514 20.312 34.1514 19.9398 34.1337 19.5641C34.1177 19.1903 34.0823 18.8176 34.0278 18.4474C33.9219 17.6993 33.7239 16.9669 33.4382 16.2669L33.7171 16.1159C33.8477 16.3617 33.9819 16.6005 34.1055 16.8463C34.229 17.0921 34.3596 17.3379 34.4585 17.5907C34.5573 17.8435 34.6915 18.0893 34.8115 18.3456L34.9563 18.7248L35.101 19.1111C35.1998 19.3674 35.2846 19.6273 35.3728 19.8871C35.4611 20.1469 35.5352 20.4138 35.6164 20.6771C35.6976 20.9405 35.7541 21.2074 35.8247 21.4707C35.8953 21.7341 35.9447 22.008 35.9942 22.2783C36.0436 22.5487 36.1001 22.8156 36.1318 23.0859C36.1636 23.3563 36.2166 23.6302 36.2448 23.9006L36.2907 24.3114L36.3189 24.7187C36.3436 24.9926 36.3542 25.2665 36.3613 25.5404C36.3684 25.8143 36.3613 26.0881 36.3613 26.362C36.3613 26.6359 36.3401 26.9063 36.3331 27.1802C36.326 27.4541 36.2836 27.7279 36.2589 27.9983L36.1918 28.82ZM36.1918 28.82L36.2625 28.0018C36.2836 27.7279 36.3189 27.4576 36.3295 27.1837C36.3401 26.9098 36.3542 26.6394 36.3472 26.3655C36.3401 26.0917 36.3472 25.8178 36.3472 25.5439C36.3472 25.27 36.326 24.9996 36.2978 24.7257L36.2625 24.3184L36.213 23.9111C36.1848 23.6372 36.1389 23.3704 36.0965 23.1C36.0542 22.8296 35.9906 22.5627 35.9377 22.2959C35.8847 22.029 35.807 21.7657 35.747 21.4988C35.687 21.2319 35.5988 20.9721 35.5176 20.7123C35.4364 20.4524 35.3552 20.1926 35.2563 19.9363C35.1575 19.6799 35.0728 19.4236 34.9633 19.1743L34.7903 18.7951L34.6173 18.4264C34.5079 18.1771 34.3808 17.9348 34.2643 17.6925C34.1478 17.4502 34.0031 17.215 33.8725 16.9902C33.7418 16.7655 33.59 16.5232 33.4488 16.288L33.7277 16.137C34.1079 16.8303 34.3906 17.5723 34.5679 18.3421C34.6584 18.7267 34.728 19.1158 34.7762 19.5079C34.825 19.9017 34.851 20.2979 34.8539 20.6947C34.8539 20.8913 34.8539 21.088 34.8539 21.2881V21.5831L34.8327 21.8815C34.808 22.2748 34.7515 22.6681 34.7021 23.0578C34.6526 23.4476 34.5679 23.8409 34.4691 24.2201C34.4232 24.4132 34.3808 24.6063 34.3279 24.796L34.1655 25.3648C34.0631 25.744 33.9219 26.1127 33.8124 26.4884C33.703 26.8641 33.5336 27.2258 33.3818 27.5875C33.23 27.9492 33.0428 28.3038 32.884 28.662C32.7251 29.0201 32.531 29.3818 32.358 29.7154L32.0861 30.2245L31.9485 30.4808L31.8037 30.7442C31.6131 31.0953 31.4119 31.4219 31.2071 31.7555C31.0024 32.089 30.7658 32.4191 30.5611 32.7492L29.9009 33.7218L29.9539 33.6305L29.9186 33.6937C29.4409 34.4543 29.0299 35.2543 28.69 36.085C28.3442 36.9119 28.0714 37.7672 27.8745 38.6412C27.8251 38.8589 27.7792 39.0801 27.7404 39.2978C27.7016 39.5155 27.6663 39.7262 27.631 39.965C27.5957 40.2038 27.5851 40.4109 27.5603 40.6322L27.525 40.9657C27.525 41.0781 27.525 41.1905 27.525 41.3169L27.4933 41.991V42.6617C27.4933 42.8864 27.4933 43.1077 27.525 43.3324C27.5568 43.5571 27.5427 43.7818 27.5745 44.003L27.6557 44.6702C27.6839 44.8949 27.7333 45.1126 27.7686 45.3338L27.8251 45.685C27.8498 45.7938 27.8781 45.9027 27.9028 46.0115C27.9557 46.2328 27.9981 46.454 28.0581 46.6717C28.1852 47.1036 28.3017 47.539 28.4606 47.9638C28.6194 48.3887 28.7818 48.8101 28.9513 49.2314C29.1207 49.6528 29.322 50.0671 29.5479 50.4639C29.6573 50.6676 29.7597 50.8712 29.8833 51.0644L30.2363 51.6613C30.494 52.044 30.7411 52.4268 31.02 52.799C31.2737 53.1893 31.5595 53.5581 31.8743 53.9015C31.193 52.9922 30.6362 51.9968 30.2186 50.9415C29.8003 49.8863 29.5283 48.7795 29.4102 47.6513C29.352 47.0868 29.3307 46.5191 29.3467 45.9518C29.3631 45.3857 29.4185 44.8214 29.5126 44.2629C29.7024 43.1441 30.0345 42.0538 30.5011 41.0184C30.7365 40.5024 31.0128 40.0057 31.3271 39.5331C31.6449 39.0591 31.9873 38.6061 32.3297 38.1531C32.6722 37.7002 33.0075 37.2402 33.3111 36.7486C33.6148 36.257 33.9042 35.7795 34.169 35.2773C35.214 33.2576 35.8984 31.0727 36.1918 28.82Z" fill="#0D0D0E"/>
<path d="M31.9343 53.9999L31.8849 53.5083C31.8637 53.3503 31.8532 53.1572 31.8426 52.9149C31.832 52.6726 31.8214 52.4093 31.8214 52.1073C31.828 51.3755 31.8918 50.6453 32.012 49.9232C32.1698 48.9826 32.4192 48.0594 32.7569 47.1668C32.9475 46.6753 33.1558 46.1696 33.4029 45.657C33.6501 45.1443 33.9254 44.6316 34.222 44.112C34.8221 43.0586 35.507 42.0052 36.2236 40.9518C36.9403 39.8983 37.6604 38.7853 38.2888 37.637C38.9248 36.497 39.3999 35.2753 39.7009 34.0063C39.994 32.7406 40.0716 31.435 39.9304 30.1438C39.7909 28.8853 39.5103 27.6463 39.0937 26.4499C38.6937 25.3062 38.2221 24.1886 37.6816 23.1036C37.1591 22.0502 36.6225 21.0951 36.1071 20.2172C35.5917 19.3394 35.0833 18.5423 34.635 17.8401C34.1867 17.1378 33.7807 16.5338 33.4382 16.0387L32.3792 14.4762L32.7145 14.8273C32.9299 15.0661 33.2617 15.4067 33.6536 15.8807L34.2961 16.6181C34.5291 16.8955 34.7762 17.201 35.0445 17.5276L35.8706 18.581C36.1495 18.9602 36.4496 19.357 36.7426 19.7854C37.3957 20.699 38.0002 21.646 38.5536 22.6225C39.1865 23.7155 39.7364 24.854 40.1987 26.0285C40.3187 26.334 40.4246 26.6535 40.5517 26.9696C40.6788 27.2856 40.7565 27.6157 40.8377 27.9492C41.0204 28.6223 41.1537 29.3076 41.2366 29.9999C41.411 31.4351 41.3322 32.8895 41.0036 34.2978C40.6689 35.6834 40.135 37.0139 39.4185 38.248C38.738 39.4068 37.9956 40.5285 37.1944 41.6084C36.439 42.6618 35.7047 43.645 35.0763 44.6176C34.4775 45.5259 33.9398 46.4725 33.4665 47.4513C33.0784 48.283 32.7596 49.145 32.5133 50.0286C32.3264 50.7208 32.1861 51.4246 32.0932 52.1354C32.0579 52.4303 32.0226 52.6972 32.0085 52.929C31.9944 53.1607 31.9697 53.3573 31.9661 53.5189L31.9343 53.9999Z" fill="#0D0D0E"/>
<path d="M34.2642 18.2228C34.2349 18.0916 34.1899 17.9642 34.1301 17.8436L34.0842 17.7523C34.1725 16.5971 33.2864 15.4875 32.8486 15.0591L32.658 14.8344L32.4638 14.4552C32.4647 14.44 32.4647 14.4247 32.4638 14.4095C30.8669 13.7013 29.5369 12.5076 28.6653 11C28.6866 11.7953 28.8751 12.5773 29.2186 13.2958C29.5621 14.0142 30.0531 14.6532 30.6599 15.1715C28.1446 16.3294 25.8258 17.8694 23.7864 19.7362C23.5028 20.0187 23.329 20.3919 23.2957 20.7896L23.151 21.8817C23.0802 22.1564 22.9527 22.4135 22.7768 22.6366L17.3296 30.3124C17.1897 30.5042 17.0912 30.7226 17.0402 30.954C16.9891 31.1855 16.9867 31.4249 17.033 31.6573L17.5273 33.9607C17.6011 34.3145 17.7866 34.6356 18.0568 34.8772C22.9992 22.612 29.3042 30.6249 33.8124 17.3204C32.1779 33.1461 23.9806 26.327 18.0568 34.8772C18.1997 35.0087 18.3645 35.1145 18.544 35.1897C19.4234 35.576 20.3506 35.844 21.3011 35.9868C21.6337 36.0234 21.9699 35.9653 22.2705 35.8192C22.5712 35.6732 22.8239 35.4451 22.9992 35.1616C23.2557 34.7322 23.4811 34.2851 23.6735 33.8238C23.7705 33.6014 23.9129 33.4014 24.0915 33.2364C24.2701 33.0714 24.4812 32.945 24.7114 32.8652C25.9575 32.4473 28.5382 31.5414 30.8364 30.5161C31.1801 30.3607 31.4647 30.0998 31.6483 29.7717C34.582 24.5117 34.7973 20.7194 34.2642 18.2228ZM26.0317 22.9632C25.8638 22.9653 25.6991 22.9177 25.5586 22.8262C25.0114 23.2722 24.2206 23.9253 24.2206 23.9253L25.2797 22.4716C25.2797 22.4716 25.2303 22.0537 25.3327 21.9168L27.2426 22.0151L26.0317 22.9632Z" fill="#0D0D0E"/>
</svg>
